if (_typeface_js && _typeface_js.loadFace) _typeface_js.loadFace({"glyphs":{"0":{"ha":1143,"x_min":54,"x_max":1083,"o":"m 64 544 q 574 0 131 56 q 1083 589 1050 78 q 554 1167 1026 1139 q 64 544 54 1111 m 564 724 q 686 582 690 697 q 560 435 700 471 q 443 582 444 471 q 564 724 440 697 z "},"1":{"ha":596,"x_min":0,"x_max":517,"o":"m 517 1111 l 0 1111 l 0 850 l 139 850 l 139 0 l 517 0 l 517 1111 z "},"2":{"ha":1038,"x_min":94,"x_max":972,"o":"m 106 317 l 106 0 l 961 0 l 961 328 l 567 328 q 972 728 961 533 q 515 1125 957 1125 q 94 1061 339 1125 l 94 689 q 367 740 278 740 q 450 694 450 740 q 106 317 450 600 z "},"3":{"ha":1036,"x_min":94,"x_max":972,"o":"m 106 356 l 106 39 q 496 -11 329 -11 q 972 313 928 -11 q 767 556 967 489 q 971 794 972 625 q 429 1131 896 1131 q 94 1097 282 1131 l 94 738 q 332 775 233 775 q 533 694 474 775 q 349 621 489 621 q 278 625 315 621 l 278 425 q 390 436 342 436 q 544 371 510 436 q 389 306 511 306 q 106 356 282 306 z "},"4":{"ha":1199,"x_min":61,"x_max":1144,"o":"m 594 217 l 594 0 l 956 0 l 956 228 l 1144 228 l 1144 550 l 961 550 l 961 1111 l 461 1111 l 61 550 l 61 217 l 594 217 m 600 772 l 600 556 l 444 556 l 600 772 z "},"5":{"ha":1022,"x_min":106,"x_max":1019,"o":"m 106 347 l 106 14 q 449 -18 297 -18 q 999 367 976 -18 q 506 731 1019 714 l 506 786 l 944 786 l 944 1108 l 111 1108 l 111 636 l 306 442 q 442 457 385 457 q 578 381 567 457 q 419 301 571 301 q 106 347 304 301 z "},"6":{"ha":1046,"x_min":-28,"x_max":1006,"o":"m 444 442 q 538 315 476 315 q 567 322 551 315 q 626 392 626 349 q 617 431 626 410 q 550 469 599 469 q 444 442 508 469 m 1006 383 q 861 64 1006 167 q 511 -19 735 -25 q -28 582 6 -6 q 536 1157 33 1157 q 967 1081 722 1157 l 967 753 q 610 863 733 863 q 472 747 483 863 q 576 753 526 753 q 1006 383 1006 753 z "},"7":{"ha":949,"x_min":33,"x_max":883,"o":"m 511 0 l 883 811 l 883 1111 l 33 1111 l 33 756 l 422 756 l 94 0 l 511 0 z "},"8":{"ha":1085,"x_min":-32,"x_max":1018,"o":"m 461 472 q 617 361 589 450 q 489 272 600 289 q 356 350 400 289 q 461 472 367 428 m 539 678 q 397 789 439 722 q 507 865 411 856 q 639 772 622 861 q 539 678 639 725 m 151 608 q -32 335 -32 499 q 497 -17 35 -35 q 1018 328 971 3 q 840 597 1018 489 q 997 832 975 672 q 499 1183 958 1175 q 11 871 118 1190 q 151 608 0 726 z "},"9":{"ha":1128,"x_min":33,"x_max":1067,"o":"m 589 686 q 497 811 583 825 q 433 750 433 801 q 442 708 433 732 q 504 657 460 657 q 589 686 539 657 m 33 763 q 179 1079 33 978 q 528 1161 306 1167 q 1067 565 1033 1149 q 503 -6 1006 -6 q 72 72 317 -6 l 72 396 q 429 288 306 288 q 567 401 556 288 q 463 396 513 396 q 33 763 33 396 z "}," ":{"ha":583,"x_min":0,"x_max":0,"o":""},"!":{"ha":542,"x_min":36,"x_max":481,"o":"m 364 350 l 481 1161 l 36 1161 l 147 350 l 364 350 m 86 144 q 258 -19 114 -25 q 414 150 408 -14 q 253 283 375 294 q 86 144 119 294 z "},"\"":{"ha":751,"x_min":49,"x_max":683,"o":"m 267 600 l 121 600 l 49 997 q 192 1133 50 1136 q 332 992 332 1131 l 267 600 m 611 600 l 472 600 l 400 992 q 533 1133 411 1133 q 679 964 683 1133 l 611 600 z "},"#":{"ha":1089,"x_min":0,"x_max":1033,"o":"m 417 228 l 628 228 l 628 0 l 833 0 l 833 228 l 1033 228 l 1033 433 l 839 433 l 839 644 l 1033 644 l 1033 850 l 839 850 l 839 1111 l 628 1111 l 628 850 l 417 850 l 417 1111 l 200 1111 l 200 850 l 0 850 l 0 650 l 200 650 l 200 428 l 0 428 l 0 222 l 200 222 l 200 0 l 417 0 l 417 228 m 628 650 l 628 433 l 417 433 l 417 650 l 628 650 z "},"$":{"ha":914,"x_min":69,"x_max":899,"o":"m 844 1061 q 544 1144 676 1136 l 544 1244 l 389 1244 l 389 1144 q 69 853 69 1046 q 294 589 69 704 q 475 444 475 497 q 378 393 475 393 q 128 478 283 393 l 128 178 q 407 110 267 106 l 406 0 l 567 0 l 567 117 q 889 372 876 117 q 656 667 899 557 q 493 790 493 740 q 533 836 493 821 q 600 849 564 849 q 844 761 696 849 l 844 1061 z "},"%":{"ha":747,"x_min":-44,"x_max":717,"o":"m 461 1111 l 0 0 l 189 0 l 667 1111 l 461 1111 m 150 689 q 333 911 325 717 q 150 1128 342 1089 q -44 906 -44 1106 q 150 689 -44 732 m 144 817 q 72 897 94 817 q 144 1000 72 967 q 208 897 206 967 q 144 817 194 839 m 525 -19 q 708 203 700 8 q 525 419 717 381 q 331 197 331 397 q 525 -19 331 24 m 519 108 q 447 189 469 108 q 519 292 447 258 q 583 189 581 258 q 519 108 569 131 z "},"&":{"ha":1128,"x_min":-22,"x_max":1078,"o":"m 767 289 l 767 528 l 1078 528 l 1078 -67 l 772 -67 l 772 6 q 356 -92 526 -92 q -11 200 60 -92 q 200 539 -22 450 q 32 803 29 635 q 504 1174 39 1174 q 889 1128 668 1174 l 889 783 q 632 829 721 829 q 528 775 533 829 q 706 667 517 672 l 706 422 q 614 426 656 426 q 389 311 403 426 q 538 247 426 247 q 767 289 628 247 z "},"'":{"ha":469,"x_min":49,"x_max":417,"o":"m 228 617 l 78 617 l 189 778 q 56 938 60 831 q 222 1128 49 1117 q 400 936 417 1117 q 228 617 400 831 z "},"(":{"ha":364,"x_min":-6,"x_max":300,"o":"m -6 508 q 63 122 -6 318 q 294 -156 150 -129 l 294 94 q 183 417 183 171 l 183 694 q 300 994 183 982 l 300 1239 q -6 508 -6 1165 z "},")":{"ha":372,"x_min":-6,"x_max":300,"o":"m 300 508 q 232 122 300 318 q 0 -156 144 -129 l 0 94 q 111 417 111 171 l 111 694 q -6 994 111 982 l -6 1239 q 300 508 300 1165 z "},"*":{"ha":479,"x_min":39,"x_max":406,"o":"m 178 778 l 178 906 l 106 839 l 39 906 l 178 967 l 39 1022 l 106 1094 l 178 1022 l 178 1139 l 272 1139 l 272 1022 l 361 1106 l 406 1022 l 272 967 l 406 906 l 356 833 l 272 906 l 272 778 l 178 778 z "},"+":{"ha":835,"x_min":17,"x_max":800,"o":"m 311 1100 l 311 794 l 17 794 l 17 606 l 311 606 l 311 301 l 506 301 l 506 606 l 800 606 l 800 800 l 506 800 l 506 1100 l 311 1100 z "},",":{"ha":497,"x_min":71,"x_max":424,"o":"m 250 344 q 422 164 419 339 q 250 -156 424 61 l 100 -156 l 211 6 q 78 165 82 58 q 250 344 71 333 z "},"-":{"ha":672,"x_min":122,"x_max":589,"o":"m 122 678 l 122 467 l 589 467 l 589 678 l 122 678 z "},".":{"ha":496,"x_min":78,"x_max":428,"o":"m 250 344 q 422 164 428 339 q 261 -6 418 29 q 78 165 94 22 q 250 344 78 333 z "},"/":{"ha":694,"x_min":0,"x_max":661,"o":"m 467 1111 l 0 0 l 189 0 l 661 1111 l 467 1111 z "},":":{"ha":482,"x_min":67,"x_max":425,"o":"m 244 350 q 422 164 422 339 q 244 -11 422 17 q 78 165 94 17 q 244 350 83 328 m 417 717 q 244 550 408 567 q 67 706 106 561 q 244 883 83 872 q 417 717 425 850 z "},";":{"ha":488,"x_min":67,"x_max":431,"o":"m 244 356 q 384 308 340 357 q 422 164 428 260 q 250 -156 415 50 l 100 -156 l 211 6 q 78 165 82 58 q 244 356 71 353 m 428 711 q 244 550 425 567 q 67 706 89 567 q 250 889 72 861 q 428 711 431 856 z "},"<":{"ha":1125,"x_min":0,"x_max":1100,"o":"m 1100 1133 l 1100 967 l 300 567 l 1100 172 l 1100 -6 l 0 556 l 1100 1133 z "},"=":{"ha":788,"x_min":0,"x_max":733,"o":"m 733 689 l 0 689 l 0 500 l 733 500 l 733 689 m 733 1028 l 6 1028 l 0 839 l 733 839 l 733 1028 z "},">":{"ha":1075,"x_min":0,"x_max":1100,"o":"m 0 1133 l 0 967 l 800 567 l 0 172 l 0 -6 l 1100 556 l 0 1133 z "},"?":{"ha":1008,"x_min":94,"x_max":961,"o":"m 583 333 q 561 410 561 372 q 583 472 561 444 q 842 579 735 489 q 961 825 961 679 q 807 1090 961 986 q 500 1182 671 1182 q 94 1111 329 1182 l 94 739 q 426 806 304 806 q 517 792 476 806 q 572 732 572 772 q 272 594 572 660 q 257 475 257 536 q 278 333 257 404 l 583 333 m 267 144 q 316 26 267 71 q 439 -19 365 -19 q 550 31 506 -19 q 594 150 594 82 q 542 247 594 208 q 433 283 494 283 q 321 246 371 283 q 267 144 267 206 z "},"@":{"ha":1239,"x_min":0,"x_max":1168,"o":"m 261 943 l 129 410 l 290 410 l 315 501 l 482 501 l 506 410 l 671 410 l 592 656 l 721 656 l 721 260 l 888 260 l 888 660 l 1033 660 l 1033 810 l 542 810 l 511 943 l 261 943 m 346 622 l 388 764 l 438 622 l 346 622 m 0 614 q 160 1050 0 878 q 585 1228 322 1228 q 1008 1050 844 1228 q 1168 614 1168 876 q 1008 179 1168 353 q 585 0 843 0 q 158 176 321 0 q 0 614 0 349 z "},"A":{"ha":1231,"x_min":33,"x_max":1183,"o":"m 389 1110 l 33 11 l 483 11 l 539 167 l 722 167 l 781 8 l 1183 8 l 867 1110 l 389 1110 m 550 411 l 622 639 l 706 411 l 550 411 z "},"B":{"ha":1076,"x_min":-6,"x_max":1022,"o":"m -6 1111 l -6 0 l 444 0 q 785 43 663 0 q 1006 278 969 108 q 828 544 1022 506 q 978 789 983 594 q 567 1111 931 1111 l -6 1111 m 389 644 l 389 794 q 440 797 417 797 q 572 728 558 797 q 460 638 568 638 q 389 644 428 638 m 400 406 q 583 328 576 417 q 469 239 590 239 q 400 244 439 239 l 400 406 z "},"C":{"ha":1010,"x_min":-28,"x_max":956,"o":"m -28 567 q 668 -14 42 -14 q 950 11 797 -14 l 950 389 q 693 319 804 319 q 411 528 499 319 q 642 746 451 746 q 956 651 767 746 l 956 1058 q 564 1122 736 1122 q -28 567 60 1122 z "},"D":{"ha":1153,"x_min":33,"x_max":1094,"o":"m 439 406 l 439 689 q 478 690 458 690 q 683 550 649 690 q 500 401 674 401 q 439 406 471 401 m 33 0 l 467 0 q 1094 561 1060 0 q 433 1111 1035 1111 l 33 1111 l 33 0 z "},"E":{"ha":1043,"x_min":33,"x_max":978,"o":"m 461 406 l 917 406 l 917 694 l 461 694 l 461 761 l 978 761 l 978 1122 l 33 1122 l 33 0 l 967 0 l 967 339 l 461 339 l 461 406 z "},"F":{"ha":1025,"x_min":33,"x_max":978,"o":"m 461 406 l 917 406 l 917 694 l 461 694 l 461 761 l 978 761 l 978 1122 l 33 1122 l 33 0 l 461 0 l 461 406 z "},"G":{"ha":1099,"x_min":-3,"x_max":1049,"o":"m -3 514 q 190 99 -3 256 q 465 -1 314 -1 q 683 44 568 -1 l 683 0 l 1049 0 l 1049 519 l 675 519 l 675 349 q 625 346 649 346 q 426 543 446 346 q 667 776 440 776 q 942 719 779 776 l 942 1079 q 604 1119 754 1119 q 154 963 311 1119 q -3 514 -3 807 z "},"H":{"ha":1185,"x_min":50,"x_max":1106,"o":"m 469 361 l 722 361 l 722 0 l 1106 0 l 1106 1111 l 719 1111 l 719 717 l 458 717 l 458 1111 l 50 1111 l 50 0 l 469 0 l 469 361 z "},"I":{"ha":540,"x_min":67,"x_max":461,"o":"m 461 1111 l 67 1111 l 67 0 l 461 0 l 461 1111 z "},"J":{"ha":978,"x_min":117,"x_max":900,"o":"m 900 1122 l 517 1122 l 517 475 q 340 351 479 351 q 117 403 250 351 l 117 28 q 408 -29 254 -29 q 606 -8 508 -29 q 900 328 872 49 l 900 1122 z "},"K":{"ha":1156,"x_min":61,"x_max":1106,"o":"m 467 356 l 683 0 l 1106 0 l 778 572 l 1106 1111 l 700 1111 l 461 733 l 461 1111 l 61 1111 l 61 0 l 467 0 l 467 356 z "},"L":{"ha":914,"x_min":33,"x_max":900,"o":"m 900 0 l 900 356 l 417 356 l 417 1111 l 33 1111 l 33 0 l 900 0 z "},"M":{"ha":1433,"x_min":33,"x_max":1354,"o":"m 411 361 l 556 0 l 844 0 l 982 361 l 982 0 l 1354 0 l 1354 1111 l 940 1111 l 693 650 l 442 1111 l 33 1111 l 33 0 l 411 0 l 411 361 z "},"N":{"ha":1168,"x_min":33,"x_max":1089,"o":"m 400 444 l 667 0 l 1089 0 l 1089 1111 l 750 1111 l 750 650 l 467 1111 l 33 1111 l 33 0 l 400 0 l 400 444 z "},"O":{"ha":1236,"x_min":-31,"x_max":1181,"o":"m -19 525 q 581 -19 58 36 q 1181 569 1142 58 q 558 1147 1114 1119 q -19 525 -31 1092 m 581 747 q 758 569 764 714 q 575 386 775 431 q 403 569 406 432 q 581 747 400 714 z "},"P":{"ha":988,"x_min":6,"x_max":968,"o":"m 378 611 l 378 756 q 567 683 558 760 q 378 611 561 600 m 6 0 l 383 0 l 383 289 q 950 683 933 281 q 422 1111 968 1111 l 6 1111 l 6 0 z "},"Q":{"ha":1297,"x_min":33,"x_max":1239,"o":"m 33 522 q 594 -33 61 28 q 928 50 824 -33 l 1044 -94 l 1239 72 l 1089 211 q 1194 500 1178 322 q 600 1133 1183 1072 q 33 522 61 1089 m 606 717 q 789 528 783 689 q 606 356 772 389 q 428 533 456 400 q 606 717 439 694 z "},"R":{"ha":1111,"x_min":75,"x_max":1053,"o":"m 469 583 l 469 746 q 508 749 490 749 q 631 667 621 749 q 506 581 607 581 q 469 583 489 581 m 75 0 l 475 0 l 475 290 l 669 0 l 1053 0 l 808 363 q 1035 699 1025 411 q 435 1129 976 1129 l 75 1129 l 75 0 z "},"S":{"ha":894,"x_min":57,"x_max":869,"o":"m 819 1081 q 479 1125 624 1125 q 81 747 57 1125 q 300 467 93 556 q 443 356 443 406 q 408 313 443 328 q 349 300 381 300 q 69 381 254 300 l 72 7 q 363 -19 233 -19 q 858 282 807 -19 q 692 590 869 494 q 538 742 538 672 q 607 796 538 796 q 819 738 676 796 l 819 1081 z "},"T":{"ha":1026,"x_min":0,"x_max":983,"o":"m 983 1122 l 983 756 l 682 756 l 682 0 l 294 0 l 294 756 l 0 756 l 0 1122 l 983 1122 z "},"U":{"ha":1122,"x_min":67,"x_max":1044,"o":"m 1044 1117 l 678 1117 l 678 411 q 560 314 656 313 q 450 411 471 315 l 450 1117 l 67 1117 l 67 406 q 533 -56 117 -37 q 915 58 785 -67 q 1044 433 1044 182 l 1044 1117 z "},"V":{"ha":1215,"x_min":28,"x_max":1167,"o":"m 28 1111 l 428 1111 l 611 472 l 789 1111 l 1167 1111 l 833 0 l 389 0 l 28 1111 z "},"W":{"ha":1485,"x_min":47,"x_max":1431,"o":"m 542 717 l 642 1100 l 864 1100 l 958 722 l 1042 1106 l 1431 1106 l 1164 0 l 847 0 l 736 328 l 647 0 l 331 0 l 47 1106 l 436 1106 l 542 717 z "},"X":{"ha":1246,"x_min":19,"x_max":1203,"o":"m 19 1111 l 464 1111 l 614 861 l 781 1111 l 1203 1111 l 842 556 l 1192 0 l 747 0 l 597 233 l 447 0 l 36 0 l 392 561 l 19 1111 z "},"Y":{"ha":1021,"x_min":-169,"x_max":992,"o":"m -169 1111 l 269 1111 l 425 839 l 592 1111 l 992 1111 l 614 444 l 614 0 l 253 0 l 253 450 l -169 1111 z "},"Z":{"ha":1096,"x_min":67,"x_max":1033,"o":"m 67 1107 l 1033 1107 l 1033 775 l 611 349 l 1006 349 l 1006 0 l 78 0 l 78 343 l 506 775 l 67 775 l 67 1107 z "},"\\":{"ha":693,"x_min":0,"x_max":661,"o":"m 194 1111 l 661 0 l 472 0 l 0 1111 l 194 1111 z "},"_":{"ha":1472,"x_min":0,"x_max":1389,"o":"m 0 0 l 1389 0 l 1389 -111 l 0 -111 l 0 0 z "},"a":{"ha":1199,"x_min":33,"x_max":1183,"o":"m 389 1110 l 33 11 l 483 11 l 539 167 l 722 167 l 781 8 l 1183 8 l 867 1110 l 389 1110 m 550 411 l 622 639 l 706 411 l 550 411 z "},"b":{"ha":1036,"x_min":-6,"x_max":1022,"o":"m -6 1111 l -6 0 l 444 0 q 785 43 663 0 q 1006 278 969 108 q 828 544 1022 506 q 978 789 983 594 q 567 1111 931 1111 l -6 1111 m 389 644 l 389 794 q 440 797 417 797 q 572 728 558 797 q 460 638 568 638 q 389 644 428 638 m 400 406 q 583 328 576 417 q 469 239 590 239 q 400 244 439 239 l 400 406 z "},"c":{"ha":1010,"x_min":-28,"x_max":956,"o":"m -28 567 q 668 -14 42 -14 q 950 11 797 -14 l 950 389 q 693 319 804 319 q 411 528 499 319 q 642 746 451 746 q 956 651 767 746 l 956 1058 q 564 1122 736 1122 q -28 567 60 1122 z "},"d":{"ha":1117,"x_min":33,"x_max":1094,"o":"m 439 406 l 439 689 q 478 690 458 690 q 683 550 649 690 q 500 401 674 401 q 439 406 471 401 m 33 0 l 467 0 q 1094 561 1060 0 q 433 1111 1035 1111 l 33 1111 l 33 0 z "},"e":{"ha":1043,"x_min":33,"x_max":978,"o":"m 461 406 l 917 406 l 917 694 l 461 694 l 461 761 l 978 761 l 978 1122 l 33 1122 l 33 0 l 967 0 l 967 339 l 461 339 l 461 406 z "},"f":{"ha":1038,"x_min":33,"x_max":978,"o":"m 461 406 l 917 406 l 917 694 l 461 694 l 461 761 l 978 761 l 978 1122 l 33 1122 l 33 0 l 461 0 l 461 406 z "},"g":{"ha":1099,"x_min":-3,"x_max":1049,"o":"m -3 514 q 190 99 -3 256 q 465 -1 314 -1 q 683 44 568 -1 l 683 0 l 1049 0 l 1049 519 l 675 519 l 675 349 q 625 346 649 346 q 426 543 446 346 q 667 776 440 776 q 942 719 779 776 l 942 1079 q 604 1119 754 1119 q 154 963 311 1119 q -3 514 -3 807 z "},"h":{"ha":1185,"x_min":50,"x_max":1106,"o":"m 469 361 l 722 361 l 722 0 l 1106 0 l 1106 1111 l 719 1111 l 719 717 l 458 717 l 458 1111 l 50 1111 l 50 0 l 469 0 l 469 361 z "},"i":{"ha":540,"x_min":67,"x_max":461,"o":"m 461 1111 l 67 1111 l 67 0 l 461 0 l 461 1111 z "},"j":{"ha":978,"x_min":117,"x_max":900,"o":"m 900 1122 l 517 1122 l 517 475 q 340 351 479 351 q 117 403 250 351 l 117 28 q 408 -29 254 -29 q 606 -8 508 -29 q 900 328 872 49 l 900 1122 z "},"k":{"ha":1156,"x_min":61,"x_max":1106,"o":"m 467 356 l 683 0 l 1106 0 l 778 572 l 1106 1111 l 700 1111 l 461 733 l 461 1111 l 61 1111 l 61 0 l 467 0 l 467 356 z "},"l":{"ha":914,"x_min":33,"x_max":900,"o":"m 900 0 l 900 356 l 417 356 l 417 1111 l 33 1111 l 33 0 l 900 0 z "},"m":{"ha":1433,"x_min":33,"x_max":1354,"o":"m 411 361 l 556 0 l 844 0 l 982 361 l 982 0 l 1354 0 l 1354 1111 l 940 1111 l 693 650 l 442 1111 l 33 1111 l 33 0 l 411 0 l 411 361 z "},"n":{"ha":1168,"x_min":33,"x_max":1089,"o":"m 400 444 l 667 0 l 1089 0 l 1089 1111 l 750 1111 l 750 650 l 467 1111 l 33 1111 l 33 0 l 400 0 l 400 444 z "},"o":{"ha":1204,"x_min":-31,"x_max":1181,"o":"m -19 525 q 581 -19 58 36 q 1181 569 1142 58 q 558 1147 1114 1119 q -19 525 -31 1092 m 581 747 q 758 569 764 714 q 575 386 775 431 q 403 569 406 432 q 581 747 400 714 z "},"p":{"ha":988,"x_min":6,"x_max":968,"o":"m 378 611 l 378 756 q 567 683 558 760 q 378 611 561 600 m 6 0 l 383 0 l 383 289 q 950 683 933 281 q 422 1111 968 1111 l 6 1111 l 6 0 z "},"q":{"ha":1246,"x_min":33,"x_max":1239,"o":"m 33 522 q 594 -33 61 28 q 928 50 824 -33 l 1044 -94 l 1239 72 l 1089 211 q 1194 500 1178 322 q 600 1133 1183 1072 q 33 522 61 1089 m 606 717 q 789 528 783 689 q 606 356 772 389 q 428 533 456 400 q 606 717 439 694 z "},"r":{"ha":1111,"x_min":75,"x_max":1053,"o":"m 469 583 l 469 746 q 508 749 490 749 q 631 667 621 749 q 506 581 607 581 q 469 583 489 581 m 75 0 l 475 0 l 475 290 l 669 0 l 1053 0 l 808 363 q 1035 699 1025 411 q 435 1129 976 1129 l 75 1129 l 75 0 z "},"s":{"ha":890,"x_min":57,"x_max":869,"o":"m 819 1081 q 479 1125 624 1125 q 81 747 57 1125 q 300 467 93 556 q 443 356 443 406 q 408 313 443 328 q 349 300 381 300 q 69 381 254 300 l 72 7 q 363 -19 233 -19 q 858 282 807 -19 q 692 590 869 494 q 538 742 538 672 q 607 796 538 796 q 819 738 676 796 l 819 1081 z "},"t":{"ha":1046,"x_min":0,"x_max":983,"o":"m 983 1122 l 983 756 l 682 756 l 682 0 l 294 0 l 294 756 l 0 756 l 0 1122 l 983 1122 z "},"u":{"ha":1122,"x_min":67,"x_max":1044,"o":"m 1044 1117 l 678 1117 l 678 411 q 560 314 656 313 q 450 411 471 315 l 450 1117 l 67 1117 l 67 406 q 533 -56 117 -37 q 915 58 785 -67 q 1044 433 1044 182 l 1044 1117 z "},"v":{"ha":1215,"x_min":28,"x_max":1167,"o":"m 28 1111 l 428 1111 l 611 472 l 789 1111 l 1167 1111 l 833 0 l 389 0 l 28 1111 z "},"w":{"ha":1485,"x_min":47,"x_max":1431,"o":"m 542 717 l 642 1100 l 864 1100 l 958 722 l 1042 1106 l 1431 1106 l 1164 0 l 847 0 l 736 328 l 647 0 l 331 0 l 47 1106 l 436 1106 l 542 717 z "},"x":{"ha":1246,"x_min":19,"x_max":1203,"o":"m 19 1111 l 464 1111 l 614 861 l 781 1111 l 1203 1111 l 842 556 l 1192 0 l 747 0 l 597 233 l 447 0 l 36 0 l 392 561 l 19 1111 z "},"y":{"ha":1021,"x_min":-169,"x_max":992,"o":"m -169 1111 l 269 1111 l 425 839 l 592 1111 l 992 1111 l 614 444 l 614 0 l 253 0 l 253 450 l -169 1111 z "},"z":{"ha":1108,"x_min":67,"x_max":1033,"o":"m 67 1107 l 1033 1107 l 1033 775 l 611 349 l 1006 349 l 1006 0 l 78 0 l 78 343 l 506 775 l 67 775 l 67 1107 z "},"‘":{"ha":482,"x_min":47,"x_max":397,"o":"m 221 617 l 371 617 l 260 778 q 393 938 390 831 q 226 1128 397 1114 q 90 1084 132 1135 q 49 936 47 1033 q 221 617 50 829 z "},"’":{"ha":468,"x_min":39,"x_max":407,"o":"m 228 617 l 78 617 l 189 778 q 56 938 56 832 q 222 1128 39 1117 q 400 936 407 1100 q 228 617 396 825 z "},"“":{"ha":750,"x_min":51,"x_max":678,"o":"m 267 600 l 121 600 l 56 938 q 75 1071 51 1024 q 188 1128 107 1132 q 328 931 333 1119 l 267 600 m 678 939 l 611 600 l 472 600 l 406 939 q 533 1133 394 1111 q 678 939 672 1117 z "},"”":{"ha":750,"x_min":51,"x_max":678,"o":"m 267 600 l 121 600 l 56 938 q 75 1071 51 1024 q 188 1128 107 1132 q 328 931 333 1119 l 267 600 m 678 939 l 611 600 l 472 600 l 406 939 q 533 1133 394 1111 q 678 939 672 1117 z "}}}
